<svg width="325.9600158691406" height="78.80549793474188" viewBox="0 0 369.6774193548386 74.89873487996165" class="h-10 w-auto">
  <g id="SvgjsG4254" featurekey="e7LhAk-0" transform="matrix(1.4946863693409997,0,0,1.4946863693409997,0,-0.029894411599940725)" fill="#2563eb">
    <g xmlns="http://www.w3.org/2000/svg" id="Page-1" stroke="none" stroke-width="1" fill="none" fill-rule="evenodd">
      <g id="Artboard" transform="translate(-587.000000, -53.000000)" fill="#2563eb" fill-rule="nonzero">
        <g id="Asset-19LETTERS1" transform="translate(587.000000, 53.020000)">
          <path d="M34.130182,2.07 L34.130182,2.07 C32.470182,-0.69 28.480182,-0.69 26.820182,2.07 L0.270181968,46.26 C-0.479818032,47.51 0.420181968,49.11 1.88018197,49.11 L8.49018197,49.11 C16.390182,49.11 23.710182,44.97 27.780182,38.19 L47.940182,4.66 C43.490182,8.1 37.030182,6.89 34.130182,2.07 L34.130182,2.07 Z" id="Path"></path>
          <path d="M60.000182,45.14 L54.470182,35.93 C51.460182,30.91 49.600182,25.3 49.010182,19.51 C48.890182,18.32 47.340182,17.97 46.720182,18.99 L37.210182,34.82 C33.430182,41.11 37.960182,49.11 45.290182,49.11 L57.900182,49.11 C59.010182,49.11 60.010182,48.39 60.340182,47.27 C60.550182,46.55 60.370182,45.78 59.990182,45.14 L60.000182,45.14 Z" id="Path"></path>
        </g>
      </g>
    </g>
  </g>
  <g id="SvgjsG4255" featurekey="Qg0WB5-0" transform="matrix(2.4702666933129263,0,0,2.4702666933129263,109.01490243893015,9.441899940045916)" fill="#242424">
    <path d="M5.86 5.539999999999999 q0.01 -0.06 0.065 -0.13 t0.135 -0.13 t0.17 -0.095 t0.17 -0.035 l2.56 0 q0.17 0 0.29 0.105 t0.18 0.185 l0.25 0.57 l5.25 13.54 q0.08 0.2 -0.03 0.325 t-0.38 0.125 l-2.87 0 q-0.23 0 -0.355 -0.085 t-0.195 -0.285 q-0.2 -0.51 -0.39 -1.015 t-0.38 -1.015 l-5.31 0 q-0.19 0.51 -0.385 1.015 t-0.385 1.015 q-0.13 0.37 -0.51 0.37 l-2.95 0 q-0.19 0 -0.315 -0.1 t-0.045 -0.3 z M7.68 9.82 q-0.19 0.51 -0.385 1.1 t-0.385 1.19 t-0.385 1.185 t-0.385 1.095 l3.07 0 z M18.41 16.05 q0.27 0.27 0.585 0.455 t0.605 0.3 t0.51 0.165 t0.3 0.05 q0.19 0 0.485 -0.015 t0.565 -0.09 t0.465 -0.245 t0.195 -0.48 q0 -0.28 -0.11 -0.445 t-0.32 -0.28 t-0.515 -0.205 t-0.685 -0.21 q-1.2 -0.32 -1.98 -0.77 t-1.235 -1.005 t-0.635 -1.195 t-0.18 -1.35 q0 -0.83 0.33 -1.51 t0.94 -1.165 t1.46 -0.75 t1.89 -0.265 q0.63 0 1.18 0.105 t1.05 0.33 t0.975 0.58 t0.945 0.845 q0.17 0.2 0.175 0.375 t-0.225 0.375 q-0.39 0.32 -0.745 0.63 t-0.735 0.69 q-0.12 0.1 -0.24 0.125 t-0.23 -0.005 t-0.21 -0.1 t-0.18 -0.17 q-0.35 -0.39 -0.8 -0.525 t-0.84 -0.135 q-0.49 0 -0.78 0.17 t-0.27 0.52 q0.02 0.26 0.195 0.405 t0.43 0.235 t0.54 0.145 t0.525 0.125 q0.9 0.29 1.65 0.63 t1.3 0.835 t0.855 1.185 t0.305 1.68 t-0.395 1.77 t-1.085 1.31 t-1.635 0.81 t-2.035 0.28 q-0.62 0 -1.26 -0.11 t-1.24 -0.355 t-1.14 -0.63 t-0.96 -0.935 q-0.11 -0.14 -0.165 -0.295 t-0.05 -0.305 t0.06 -0.275 t0.175 -0.215 l1.29 -1.29 q0.24 -0.2 0.425 -0.14 t0.475 0.34 z M29.990000000000002 16.05 q0.27 0.27 0.585 0.455 t0.605 0.3 t0.51 0.165 t0.3 0.05 q0.19 0 0.485 -0.015 t0.565 -0.09 t0.465 -0.245 t0.195 -0.48 q0 -0.28 -0.11 -0.445 t-0.32 -0.28 t-0.515 -0.205 t-0.685 -0.21 q-1.2 -0.32 -1.98 -0.77 t-1.235 -1.005 t-0.635 -1.195 t-0.18 -1.35 q0 -0.83 0.33 -1.51 t0.94 -1.165 t1.46 -0.75 t1.89 -0.265 q0.63 0 1.18 0.105 t1.05 0.33 t0.975 0.58 t0.945 0.845 q0.17 0.2 0.175 0.375 t-0.225 0.375 q-0.39 0.32 -0.745 0.63 t-0.735 0.69 q-0.12 0.1 -0.24 0.125 t-0.23 -0.005 t-0.21 -0.1 t-0.18 -0.17 q-0.35 -0.39 -0.8 -0.525 t-0.84 -0.135 q-0.49 0 -0.78 0.17 t-0.27 0.52 q0.02 0.26 0.195 0.405 t0.43 0.235 t0.54 0.145 t0.525 0.125 q0.9 0.29 1.65 0.63 t1.3 0.835 t0.855 1.185 t0.305 1.68 t-0.395 1.77 t-1.085 1.31 t-1.635 0.81 t-2.035 0.28 q-0.62 0 -1.26 -0.11 t-1.24 -0.355 t-1.14 -0.63 t-0.96 -0.935 q-0.11 -0.14 -0.165 -0.295 t-0.05 -0.305 t0.06 -0.275 t0.175 -0.215 l1.29 -1.29 q0.24 -0.2 0.425 -0.14 t0.475 0.34 z M50.31 18.48 q-0.88 0.81 -1.98 1.265 t-2.33 0.455 q-1.37 0 -2.59 -0.5 t-2.14 -1.385 t-1.46 -2.085 t-0.54 -2.61 q0 -0.88 0.215 -1.705 t0.61 -1.545 t0.96 -1.325 t1.265 -1.035 t1.52 -0.67 t1.73 -0.24 q0.83 0 1.61 0.22 t1.465 0.62 t1.255 0.96 t0.98 1.225 t0.635 1.42 t0.225 1.555 q0 0.52 -0.015 0.85 t-0.155 0.525 t-0.465 0.27 t-0.955 0.075 l-7.2 0 q0.1 0.64 0.405 1.07 t0.705 0.685 t0.85 0.365 t0.85 0.11 q0.36 0 0.74 -0.075 t0.735 -0.2 t0.65 -0.29 t0.475 -0.345 q0.16 -0.13 0.275 -0.195 t0.245 -0.065 t0.265 0.09 t0.305 0.26 l1.06 1.2 q0.11 0.13 0.14 0.235 t0.03 0.215 q0 0.2 -0.11 0.345 t-0.26 0.255 z M45.5 10.15 q-0.39 0 -0.755 0.155 t-0.685 0.415 t-0.575 0.59 t-0.415 0.67 l5.11 0 q-0.21 -0.39 -0.455 -0.72 t-0.56 -0.58 t-0.72 -0.39 t-0.945 -0.14 z M55.73 16.05 q0.27 0.27 0.585 0.455 t0.605 0.3 t0.51 0.165 t0.3 0.05 q0.19 0 0.485 -0.015 t0.565 -0.09 t0.465 -0.245 t0.195 -0.48 q0 -0.28 -0.11 -0.445 t-0.32 -0.28 t-0.515 -0.205 t-0.685 -0.21 q-1.2 -0.32 -1.98 -0.77 t-1.235 -1.005 t-0.635 -1.195 t-0.18 -1.35 q0 -0.83 0.33 -1.51 t0.94 -1.165 t1.46 -0.75 t1.89 -0.265 q0.63 0 1.18 0.105 t1.05 0.33 t0.975 0.58 t0.945 0.845 q0.17 0.2 0.175 0.375 t-0.225 0.375 q-0.39 0.32 -0.745 0.63 t-0.735 0.69 q-0.12 0.1 -0.24 0.125 t-0.23 -0.005 t-0.21 -0.1 t-0.18 -0.17 q-0.35 -0.39 -0.8 -0.525 t-0.84 -0.135 q-0.49 0 -0.78 0.17 t-0.27 0.52 q0.02 0.26 0.195 0.405 t0.43 0.235 t0.54 0.145 t0.525 0.125 q0.9 0.29 1.65 0.63 t1.3 0.835 t0.855 1.185 t0.305 1.68 t-0.395 1.77 t-1.085 1.31 t-1.635 0.81 t-2.035 0.28 q-0.62 0 -1.26 -0.11 t-1.24 -0.355 t-1.14 -0.63 t-0.96 -0.935 q-0.11 -0.14 -0.165 -0.295 t-0.05 -0.305 t0.06 -0.275 t0.175 -0.215 l1.29 -1.29 q0.24 -0.2 0.425 -0.14 t0.475 0.34 z M67.30999999999999 16.05 q0.27 0.27 0.585 0.455 t0.605 0.3 t0.51 0.165 t0.3 0.05 q0.19 0 0.485 -0.015 t0.565 -0.09 t0.465 -0.245 t0.195 -0.48 q0 -0.28 -0.11 -0.445 t-0.32 -0.28 t-0.515 -0.205 t-0.685 -0.21 q-1.2 -0.32 -1.98 -0.77 t-1.235 -1.005 t-0.635 -1.195 t-0.18 -1.35 q0 -0.83 0.33 -1.51 t0.94 -1.165 t1.46 -0.75 t1.89 -0.265 q0.63 0 1.18 0.105 t1.05 0.33 t0.975 0.58 t0.945 0.845 q0.17 0.2 0.175 0.375 t-0.225 0.375 q-0.39 0.32 -0.745 0.63 t-0.735 0.69 q-0.12 0.1 -0.24 0.125 t-0.23 -0.005 t-0.21 -0.1 t-0.18 -0.17 q-0.35 -0.39 -0.8 -0.525 t-0.84 -0.135 q-0.49 0 -0.78 0.17 t-0.27 0.52 q0.02 0.26 0.195 0.405 t0.43 0.235 t0.54 0.145 t0.525 0.125 q0.9 0.29 1.65 0.63 t1.3 0.835 t0.855 1.185 t0.305 1.68 t-0.395 1.77 t-1.085 1.31 t-1.635 0.81 t-2.035 0.28 q-0.62 0 -1.26 -0.11 t-1.24 -0.355 t-1.14 -0.63 t-0.96 -0.935 q-0.11 -0.14 -0.165 -0.295 t-0.05 -0.305 t0.06 -0.275 t0.175 -0.215 l1.29 -1.29 q0.24 -0.2 0.425 -0.14 t0.475 0.34 z M77.38 5.59 q0 -0.18 0.115 -0.31 t0.325 -0.13 l2.96 0 q0.15 0 0.315 0.12 t0.165 0.32 l0 5.45 q1.09 -1.4 2.14 -2.76 t2.13 -2.76 q0.11 -0.17 0.285 -0.275 t0.345 -0.105 l3.8 0 q0.24 0 0.24 0.15 q0 0.1 -0.11 0.24 l-4.71 6.21 l5.21 7.84 q0.11 0.17 0.11 0.27 q0 0.15 -0.22 0.15 l-3.78 0 q-0.17 0 -0.335 -0.1 t-0.275 -0.27 q-0.53 -0.72 -0.965 -1.38 t-0.845 -1.315 t-0.83 -1.325 t-0.92 -1.41 l-1.27 1.46 l0 3.9 q0 0.44 -0.48 0.44 l-2.95 0 q-0.45 0 -0.45 -0.44 l0 -13.97 z M92.27 8.08 q0 -0.32 0.18 -0.55 t0.56 -0.23 l2.29 0 q0.12 0 0.26 0.055 t0.26 0.16 t0.205 0.245 t0.085 0.32 l0 11.15 q0 0.38 -0.21 0.575 t-0.6 0.195 l-2.29 0 q-0.74 0 -0.74 -0.77 l0 -11.15 z M92.27 3.0199999999999996 q0 -0.42 0.18 -0.595 t0.56 -0.175 l2.32 0 q0.35 0 0.565 0.175 t0.215 0.595 l0 1.95 q0 0.12 -0.055 0.26 t-0.155 0.27 t-0.245 0.215 t-0.325 0.085 l-2.32 0 q-0.74 0 -0.74 -0.83 l0 -1.95 z M99.28 5.32 q0 -0.31 0.205 -0.465 t0.585 -0.295 l2.27 -0.79 q0.05 -0.01 0.095 -0.01 l0.085 0 q0.37 0 0.495 0.215 t0.125 0.565 l-0.01 3.15 l1.67 0 q0.32 0 0.52 0.19 t0.2 0.57 l0 1.93 q0 0.42 -0.2 0.615 t-0.52 0.195 l-1.67 0 l0.01 8.04 q0 0.38 -0.22 0.575 t-0.61 0.195 l-2.26 0 q-0.77 0 -0.77 -0.77 l-0.01 -8.04 l-0.73 0 q-0.77 0 -0.77 -0.81 l0 -1.93 q0 -0.76 0.77 -0.76 l0.73 0 z"></path>
  </g>
</svg>
