<svg class="size-6" width="100%" height="100%" viewBox="0 0 24 25" fill="none" xmlns="http://www.w3.org/2000/svg" fit="" preserveAspectRatio="xMidYMid meet" focusable="false">
  <path d="M3 19.0465V17.0465H5V19.0465H3ZM3 15.5465V13.5465H5V15.5465H3ZM3 12.0465V10.0465H5V12.0465H3ZM6.5 22.5465V20.5465H8.5V22.5465H6.5ZM7 18.5465V2.54651H20V18.5465H7ZM9 16.5465H18V4.54651H9V16.5465ZM10 22.5465V20.5465H12V22.5465H10ZM3 22.5465V20.5465H5V22.5465H3ZM13.5 22.5465V20.5465H15.5V22.5465H13.5ZM3 8.54651V6.54651H5V8.54651H3Z" fill="currentColor"></path>
</svg>
