<svg class="size-6" width="100%" height="100%" viewBox="0 0 24 25" fill="none" xmlns="http://www.w3.org/2000/svg" fit="" preserveAspectRatio="xMidYMid meet" focusable="false">
  <path d="M9 3.54651V1.54651H15V3.54651H9ZM11 14.5465H13V8.54651H11V14.5465ZM12 22.5465C10.7667 22.5465 9.60417 22.309 8.5125 21.834C7.42083 21.359 6.46667 20.7132 5.65 19.8965C4.83333 19.0798 4.1875 18.1257 3.7125 17.034C3.2375 15.9423 3 14.7798 3 13.5465C3 12.3132 3.2375 11.1507 3.7125 10.059C4.1875 8.96734 4.83333 8.01318 5.65 7.19651C6.46667 6.37984 7.42083 5.73401 8.5125 5.25901C9.60417 4.78401 10.7667 4.54651 12 4.54651C13.0333 4.54651 14.025 4.71318 14.975 5.04651C15.925 5.37984 16.8167 5.86318 17.65 6.49651L19.05 5.09651L20.45 6.49651L19.05 7.89651C19.6833 8.72984 20.1667 9.62151 20.5 10.5715C20.8333 11.5215 21 12.5132 21 13.5465C21 14.7798 20.7625 15.9423 20.2875 17.034C19.8125 18.1257 19.1667 19.0798 18.35 19.8965C17.5333 20.7132 16.5792 21.359 15.4875 21.834C14.3958 22.309 13.2333 22.5465 12 22.5465ZM12 20.5465C13.9333 20.5465 15.5833 19.8632 16.95 18.4965C18.3167 17.1298 19 15.4798 19 13.5465C19 11.6132 18.3167 9.96318 16.95 8.59651C15.5833 7.22984 13.9333 6.54651 12 6.54651C10.0667 6.54651 8.41667 7.22984 7.05 8.59651C5.68333 9.96318 5 11.6132 5 13.5465C5 15.4798 5.68333 17.1298 7.05 18.4965C8.41667 19.8632 10.0667 20.5465 12 20.5465Z" fill="currentColor"></path>
</svg>