<svg class="size-6" width="100%" height="100%" viewBox="0 0 24 25" fill="none" xmlns="http://www.w3.org/2000/svg" fit="" preserveAspectRatio="xMidYMid meet" focusable="false">
  <path d="M12 22.5465C10.6333 22.5465 9.34167 22.284 8.125 21.759C6.90833 21.234 5.84583 20.5173 4.9375 19.609C4.02917 18.7007 3.3125 17.6382 2.7875 16.4215C2.2625 15.2048 2 13.9132 2 12.5465C2 11.1632 2.2625 9.86734 2.7875 8.65901C3.3125 7.45068 4.02917 6.39234 4.9375 5.48401C5.84583 4.57568 6.90833 3.85901 8.125 3.33401C9.34167 2.80901 10.6333 2.54651 12 2.54651C13.3833 2.54651 14.6792 2.80901 15.8875 3.33401C17.0958 3.85901 18.1542 4.57568 19.0625 5.48401C19.9708 6.39234 20.6875 7.45068 21.2125 8.65901C21.7375 9.86734 22 11.1632 22 12.5465C22 13.9132 21.7375 15.2048 21.2125 16.4215C20.6875 17.6382 19.9708 18.7007 19.0625 19.609C18.1542 20.5173 17.0958 21.234 15.8875 21.759C14.6792 22.284 13.3833 22.5465 12 22.5465ZM12 20.4965C12.4333 19.8965 12.8083 19.2715 13.125 18.6215C13.4417 17.9715 13.7 17.2798 13.9 16.5465H10.1C10.3 17.2798 10.5583 17.9715 10.875 18.6215C11.1917 19.2715 11.5667 19.8965 12 20.4965ZM9.4 20.0965C9.1 19.5465 8.8375 18.9757 8.6125 18.384C8.3875 17.7923 8.2 17.1798 8.05 16.5465H5.1C5.58333 17.3798 6.1875 18.1048 6.9125 18.7215C7.6375 19.3382 8.46667 19.7965 9.4 20.0965ZM14.6 20.0965C15.5333 19.7965 16.3625 19.3382 17.0875 18.7215C17.8125 18.1048 18.4167 17.3798 18.9 16.5465H15.95C15.8 17.1798 15.6125 17.7923 15.3875 18.384C15.1625 18.9757 14.9 19.5465 14.6 20.0965ZM4.25 14.5465H7.65C7.6 14.2132 7.5625 13.884 7.5375 13.559C7.5125 13.234 7.5 12.8965 7.5 12.5465C7.5 12.1965 7.5125 11.859 7.5375 11.534C7.5625 11.209 7.6 10.8798 7.65 10.5465H4.25C4.16667 10.8798 4.10417 11.209 4.0625 11.534C4.02083 11.859 4 12.1965 4 12.5465C4 12.8965 4.02083 13.234 4.0625 13.559C4.10417 13.884 4.16667 14.2132 4.25 14.5465ZM9.65 14.5465H14.35C14.4 14.2132 14.4375 13.884 14.4625 13.559C14.4875 13.234 14.5 12.8965 14.5 12.5465C14.5 12.1965 14.4875 11.859 14.4625 11.534C14.4375 11.209 14.4 10.8798 14.35 10.5465H9.65C9.6 10.8798 9.5625 11.209 9.5375 11.534C9.5125 11.859 9.5 12.1965 9.5 12.5465C9.5 12.8965 9.5125 13.234 9.5375 13.559C9.5625 13.884 9.6 14.2132 9.65 14.5465ZM16.35 14.5465H19.75C19.8333 14.2132 19.8958 13.884 19.9375 13.559C19.9792 13.234 20 12.8965 20 12.5465C20 12.1965 19.9792 11.859 19.9375 11.534C19.8958 11.209 19.8333 10.8798 19.75 10.5465H16.35C16.4 10.8798 16.4375 11.209 16.4625 11.534C16.4875 11.859 16.5 12.1965 16.5 12.5465C16.5 12.8965 16.4875 13.234 16.4625 13.559C16.4375 13.884 16.4 14.2132 16.35 14.5465ZM15.95 8.54651H18.9C18.4167 7.71318 17.8125 6.98818 17.0875 6.37151C16.3625 5.75484 15.5333 5.29651 14.6 4.99651C14.9 5.54651 15.1625 6.11734 15.3875 6.70901C15.6125 7.30068 15.8 7.91318 15.95 8.54651ZM10.1 8.54651H13.9C13.7 7.81318 13.4417 7.12151 13.125 6.47151C12.8083 5.82151 12.4333 5.19651 12 4.59651C11.5667 5.19651 11.1917 5.82151 10.875 6.47151C10.5583 7.12151 10.3 7.81318 10.1 8.54651ZM5.1 8.54651H8.05C8.2 7.91318 8.3875 7.30068 8.6125 6.70901C8.8375 6.11734 9.1 5.54651 9.4 4.99651C8.46667 5.29651 7.6375 5.75484 6.9125 6.37151C6.1875 6.98818 5.58333 7.71318 5.1 8.54651Z" fill="currentColor"></path>
</svg>
