<svg class="size-6" width="100%" height="100%" viewBox="0 0 24 25" fill="none" xmlns="http://www.w3.org/2000/svg" fit="" preserveAspectRatio="xMidYMid meet" focusable="false">
  <path d="M12 12.5465C12.55 12.5465 13.0208 12.3507 13.4125 11.959C13.8042 11.5673 14 11.0965 14 10.5465C14 9.99651 13.8042 9.52568 13.4125 9.13401C13.0208 8.74234 12.55 8.54651 12 8.54651C11.45 8.54651 10.9792 8.74234 10.5875 9.13401C10.1958 9.52568 10 9.99651 10 10.5465C10 11.0965 10.1958 11.5673 10.5875 11.959C10.9792 12.3507 11.45 12.5465 12 12.5465ZM12 19.8965C14.0333 18.0298 15.5417 16.334 16.525 14.809C17.5083 13.284 18 11.9298 18 10.7465C18 8.92984 17.4208 7.44234 16.2625 6.28401C15.1042 5.12568 13.6833 4.54651 12 4.54651C10.3167 4.54651 8.89583 5.12568 7.7375 6.28401C6.57917 7.44234 6 8.92984 6 10.7465C6 11.9298 6.49167 13.284 7.475 14.809C8.45833 16.334 9.96667 18.0298 12 19.8965ZM12 22.5465C9.31667 20.2632 7.3125 18.1423 5.9875 16.184C4.6625 14.2257 4 12.4132 4 10.7465C4 8.24651 4.80417 6.25484 6.4125 4.77151C8.02083 3.28818 9.88333 2.54651 12 2.54651C14.1167 2.54651 15.9792 3.28818 17.5875 4.77151C19.1958 6.25484 20 8.24651 20 10.7465C20 12.4132 19.3375 14.2257 18.0125 16.184C16.6875 18.1423 14.6833 20.2632 12 22.5465Z" fill="currentColor"></path>
</svg>
