<svg class="size-6" width="100%" height="100%" viewBox="0 0 24 25" fill="none" xmlns="http://www.w3.org/2000/svg" fit="" preserveAspectRatio="xMidYMid meet" focusable="false">
  <path d="M12 22.5465C10.0667 22.5465 8.41667 21.8632 7.05 20.4965C5.68333 19.1298 5 17.4798 5 15.5465V9.54651C5 7.61318 5.68333 5.96318 7.05 4.59651C8.41667 3.22984 10.0667 2.54651 12 2.54651C13.9333 2.54651 15.5833 3.22984 16.95 4.59651C18.3167 5.96318 19 7.61318 19 9.54651V15.5465C19 17.4798 18.3167 19.1298 16.95 20.4965C15.5833 21.8632 13.9333 22.5465 12 22.5465ZM13 9.54651H17C17 8.34651 16.6208 7.28818 15.8625 6.37151C15.1042 5.45484 14.15 4.87984 13 4.64651V9.54651ZM7 9.54651H11V4.64651C9.85 4.87984 8.89583 5.45484 8.1375 6.37151C7.37917 7.28818 7 8.34651 7 9.54651ZM12 20.5465C13.3833 20.5465 14.5625 20.059 15.5375 19.084C16.5125 18.109 17 16.9298 17 15.5465V11.5465H7V15.5465C7 16.9298 7.4875 18.109 8.4625 19.084C9.4375 20.059 10.6167 20.5465 12 20.5465Z" fill="currentColor"></path>
</svg>
