<svg xmlns="http://www.w3.org/2000/svg" width="160" height="125" viewBox="0 0 160 125" fill="none" class="size-6">
  <g clip-path="url(#clip0_1898_13444)">
    <path fill-rule="evenodd" clip-rule="evenodd" d="M60.6925 7.23539H95.1851C95.7595 7.52658 96.5248 7.99526 97.3183 8.71157C98.9695 10.2022 100.936 12.9325 101.361 17.9275L107.679 17.3898C107.307 13.0246 105.998 9.71259 104.348 7.23539H107.895C113.789 7.23539 118.927 11.2213 120.405 16.9151L121.068 20.7252H89.0667V27.0657H120.286L109.884 53.6787H98.7315V60.0193H110.119L123.577 86.0566L122.42 85.9356L119.1 117.662H39.3374V124.003H121.956L125.109 121.163L128.726 86.5954L125.582 86.2664L129.717 84.1287L115.523 56.6672L127.882 25.0496C128.191 24.2603 128.168 23.3889 127.835 22.6267L126.63 15.7074L126.582 15.4804C124.435 6.91176 116.736 0.894831 107.895 0.894831H96.4629C96.336 0.850278 96.2278 0.815075 96.1407 0.788108C96.0878 0.771729 96.0426 0.758363 96.0056 0.747765L95.9563 0.733903L95.9363 0.728465L95.9276 0.726109L95.9235 0.72502C95.9227 0.724821 95.922 0.724624 95.8762 0.894831H49.3092C40.4677 0.894831 32.7688 6.91176 30.6218 15.4804L30.6173 15.4988L29.3661 20.6217L31.8976 21.2399L29.2517 24.8502L39.2655 56.5552L24.9986 84.1274L25.5449 85.0252L24.675 86.0261L29.6366 121.275L35.9153 120.391L31.4622 88.7546H118.093V82.4141H114.699V82.4139H33.0243L44.6121 60.0193H55.2729V53.6787H45.0062L36.6008 27.0657H65.8425V20.7252H55.1114C55.7071 16.9189 57.262 14.2396 58.7279 12.4566C59.6091 11.3848 60.4688 10.6258 61.0884 10.1462C61.3974 9.90711 61.6434 9.74 61.7979 9.64051C61.875 9.59084 61.9289 9.55832 61.9558 9.54236L61.9755 9.53088L61.9692 9.5344L61.9619 9.53845L61.9572 9.54105L61.9545 9.54249C61.9532 9.5432 61.9519 9.54393 60.6925 7.23539ZM54.8867 7.23539H49.3092C43.3819 7.23539 38.2183 11.2669 36.7744 17.0129L35.8678 20.7252H48.7123C49.3704 15.1655 51.6044 11.1369 53.8302 8.42976C54.1856 7.99749 54.54 7.59978 54.8867 7.23539ZM30.3997 39.9002L23.2042 23.7958L17.4152 26.3823L20.622 33.5596H10.5438L17.907 45.0277L2.46874 48.8588C1.09008 49.2009 0.107271 50.4183 0.0635288 51.8381C0.0197869 53.2579 0.92579 54.5335 2.28077 54.9599L19.1904 60.2804L15.0542 64.8563C14.2368 65.7606 14.0102 67.0535 14.4715 68.1818C14.9328 69.3102 16.0001 70.0741 17.217 70.1468L30.6604 70.9501L31.0385 64.6208L24.1843 64.2113L27.2084 60.8657C27.9325 60.0646 28.1991 58.95 27.9158 57.908C27.6324 56.8659 26.8382 56.0398 25.8081 55.7157L14.9414 52.2965L26.8062 49.3522L25.279 43.1982L24.4064 43.4148L22.1498 39.9002H30.3997ZM135.005 63.1852L131.677 57.3334L134.432 55.7661L133.681 52.6861L144.932 49.9425L131.47 45.7354L131.183 46.0107L130.682 45.4893L129.964 45.2648L130.087 44.8704L126.788 41.4407L134.798 33.7375L129.273 30.4089L132.545 24.9779L141.612 30.4405L142.173 35.441L136.683 40.7216L157.713 47.2937C159.073 47.7184 159.982 48.9973 159.936 50.4206C159.891 51.8439 158.902 53.0623 157.519 53.3996L139.265 57.8508L144.008 66.1907L140.592 70.8587L133.458 69.3385L136.977 76.3766L131.306 79.2122L124.841 66.2829L128.337 61.7644L135.005 63.1852ZM38.3687 94.2443H98.0806V100.585H45.2841L45.7836 106.333H109.775L110.059 100.585H102.539V94.2443H116.721L115.809 112.674H39.9701L38.3687 94.2443ZM85.1422 13.8241H69.3632V24.0894H75.7038V20.1647H78.8016V24.2348H85.1422V13.8241ZM70.9846 43.3789C69.5585 45.1615 68.6733 47.8941 68.6733 51.4186H62.3327C62.3327 46.927 63.4515 42.6454 66.0335 39.4179C68.6917 36.0952 72.6434 34.22 77.5272 34.22C80.4054 34.22 84.0539 35.6172 86.7798 38.123C89.6524 40.7637 91.7021 44.8447 90.6557 50.0388C90.0278 53.1756 88.6897 55.3373 86.871 56.8761C85.4403 58.0867 83.7617 58.8278 82.5884 59.3458C82.4119 59.4238 82.2468 59.4967 82.0957 59.5653C80.7707 60.1676 80.1047 60.5875 79.649 61.1902C79.2283 61.7466 78.6935 62.8702 78.6935 65.4469H72.3529C72.3529 62.0115 73.0706 59.3775 74.5914 57.3662C76.0771 55.4012 78.0413 54.4434 79.4719 53.7931C79.6921 53.693 79.8991 53.6 80.0946 53.5122L80.1039 53.508L80.1049 53.5075C81.3239 52.9598 82.0904 52.6154 82.7754 52.0358C83.3987 51.5084 84.0643 50.6648 84.4387 48.7928L84.4397 48.7879C84.9759 46.1286 84.0198 44.1984 82.4888 42.7909C80.8106 41.2483 78.6572 40.5606 77.5272 40.5606C74.395 40.5606 72.3345 41.6915 70.9846 43.3789ZM75.5234 74.7074C77.3086 74.7074 78.7558 73.2603 78.7558 71.4751C78.7558 69.6899 77.3086 68.2428 75.5234 68.2428C73.7383 68.2428 72.2911 69.6899 72.2911 71.4751C72.2911 73.2603 73.7383 74.7074 75.5234 74.7074Z" fill="#242424"/>
  </g>
  <defs>
    <clipPath id="clip0_1898_13444">
      <rect width="160" height="123.248" fill="white" transform="translate(0 0.816589)"/>
    </clipPath>
  </defs>
</svg>
