<svg class="size-6" width="100%" height="100%" viewBox="0 0 24 25" fill="none" xmlns="http://www.w3.org/2000/svg" fit="" preserveAspectRatio="xMidYMid meet" focusable="false">
  <path d="M14 15.5465C14.2833 15.5465 14.5292 15.4423 14.7375 15.234C14.9458 15.0257 15.05 14.7798 15.05 14.4965C15.05 14.2132 14.9458 13.9673 14.7375 13.759C14.5292 13.5507 14.2833 13.4465 14 13.4465C13.7167 13.4465 13.4708 13.5507 13.2625 13.759C13.0542 13.9673 12.95 14.2132 12.95 14.4965C12.95 14.7798 13.0542 15.0257 13.2625 15.234C13.4708 15.4423 13.7167 15.5465 14 15.5465ZM13.25 12.3465H14.75C14.75 11.8632 14.8 11.509 14.9 11.284C15 11.059 15.2333 10.7632 15.6 10.3965C16.1 9.89651 16.4333 9.49234 16.6 9.18401C16.7667 8.87568 16.85 8.51318 16.85 8.09651C16.85 7.34651 16.5875 6.73401 16.0625 6.25901C15.5375 5.78401 14.85 5.54651 14 5.54651C13.3167 5.54651 12.7208 5.73818 12.2125 6.12151C11.7042 6.50484 11.35 7.01318 11.15 7.64651L12.5 8.19651C12.65 7.77984 12.8542 7.46734 13.1125 7.25901C13.3708 7.05068 13.6667 6.94651 14 6.94651C14.4 6.94651 14.725 7.05901 14.975 7.28401C15.225 7.50901 15.35 7.81318 15.35 8.19651C15.35 8.42984 15.2833 8.65068 15.15 8.85901C15.0167 9.06734 14.7833 9.32984 14.45 9.64651C13.9 10.1298 13.5625 10.509 13.4375 10.784C13.3125 11.059 13.25 11.5798 13.25 12.3465ZM6 18.5465V2.54651H22V18.5465H6ZM8 16.5465H20V4.54651H8V16.5465ZM2 22.5465V6.54651H4V20.5465H18V22.5465H2Z" fill="currentColor"></path>
</svg>