<svg xmlns="http://www.w3.org/2000/svg" width="100%" height="100%" viewBox="0 0 16 16" fill="none" fit="" preserveAspectRatio="xMidYMid meet" focusable="false" class="size-6">
  <path fill-rule="evenodd" clip-rule="evenodd" d="M4.14182 2.45731C4.53022 1.80997 5.4684 1.80997 5.8568 2.45731L7.97371 5.98548C8.37362 6.652 7.89351 7.49998 7.11621 7.49998H2.8824C2.10511 7.49998 1.625 6.652 2.02491 5.98548L4.14182 2.45731ZM7.11621 6.49998L4.99931 2.9718L2.8824 6.49998L7.11621 6.49998ZM9.49951 6.5C9.49951 5.94772 9.94723 5.5 10.4995 5.5H13.4995C14.0518 5.5 14.4995 5.94772 14.4995 6.5V9.5C14.4995 10.0523 14.0518 10.5 13.4995 10.5H10.4995C9.94723 10.5 9.49951 10.0523 9.49951 9.5V6.5ZM13.4995 6.5H10.4995V9.5H13.4995V6.5ZM3.49951 11.5C3.49951 10.3954 4.39494 9.5 5.49951 9.5C6.60408 9.5 7.49951 10.3954 7.49951 11.5C7.49951 12.6046 6.60408 13.5 5.49951 13.5C4.39494 13.5 3.49951 12.6046 3.49951 11.5ZM5.49951 8.5C3.84266 8.5 2.49951 9.84315 2.49951 11.5C2.49951 13.1569 3.84266 14.5 5.49951 14.5C7.15637 14.5 8.49951 13.1569 8.49951 11.5C8.49951 9.84315 7.15637 8.5 5.49951 8.5Z" fill="black"></path>
</svg>