<svg width="100%" height="100%" viewBox="0 0 24 25" fill="none" xmlns="http://www.w3.org/2000/svg" fit="" preserveAspectRatio="xMidYMid meet" focusable="false" class="size-6">
  <path d="M6.5 11.5465L12 2.54651L17.5 11.5465H6.5ZM17.5 22.5465C16.25 22.5465 15.1875 22.109 14.3125 21.234C13.4375 20.359 13 19.2965 13 18.0465C13 16.7965 13.4375 15.734 14.3125 14.859C15.1875 13.984 16.25 13.5465 17.5 13.5465C18.75 13.5465 19.8125 13.984 20.6875 14.859C21.5625 15.734 22 16.7965 22 18.0465C22 19.2965 21.5625 20.359 20.6875 21.234C19.8125 22.109 18.75 22.5465 17.5 22.5465ZM3 22.0465V14.0465H11V22.0465H3ZM17.5 20.5465C18.2 20.5465 18.7917 20.3048 19.275 19.8215C19.7583 19.3382 20 18.7465 20 18.0465C20 17.3465 19.7583 16.7548 19.275 16.2715C18.7917 15.7882 18.2 15.5465 17.5 15.5465C16.8 15.5465 16.2083 15.7882 15.725 16.2715C15.2417 16.7548 15 17.3465 15 18.0465C15 18.7465 15.2417 19.3382 15.725 19.8215C16.2083 20.3048 16.8 20.5465 17.5 20.5465ZM5 20.0465H9V16.0465H5V20.0465ZM10.05 9.54651H13.95L12 6.39651L10.05 9.54651Z" fill="currentColor"></path>
</svg>
