<svg class="size-6" fill="#ffffff" viewBox="0 0 32 32" version="1.1" xmlns="http://www.w3.org/2000/svg"
    stroke="#ffffff">
    <g id="SVGRepo_bgCarrier" stroke-width="0"></g>
    <g id="SVGRepo_tracerCarrier" stroke-linecap="round" stroke-linejoin="round"></g>
    <g id="SVGRepo_iconCarrier">
        <title>webcam</title>
        <path
            d="M24.133 13.998c-0.001-4.491-3.642-8.132-8.133-8.132s-8.133 3.641-8.133 8.133 3.641 8.133 8.133 8.133c0 0 0 0 0.001 0h-0c4.49-0.005 8.129-3.644 8.133-8.134v-0zM9.366 13.998c0.001-3.663 2.97-6.632 6.633-6.632s6.633 2.97 6.633 6.633c0 3.663-2.97 6.633-6.633 6.633h-0c-3.663-0.004-6.63-2.972-6.634-6.634v-0zM22.762 24.785c3.617-2.291 5.984-6.272 5.984-10.805 0-7.040-5.707-12.747-12.747-12.747s-12.747 5.707-12.747 12.747c0 4.512 2.345 8.477 5.882 10.742l0.051 0.031-4.715 4.718c-0.136 0.136-0.22 0.323-0.22 0.53 0 0.414 0.335 0.749 0.749 0.749 0 0 0.001 0 0.001 0h22c0.414-0.001 0.749-0.337 0.749-0.751 0-0.209-0.086-0.398-0.224-0.534l-0-0zM4.752 13.998c0-6.212 5.036-11.248 11.248-11.248s11.248 5.036 11.248 11.248c0 6.212-5.036 11.248-11.248 11.248v0c-6.209-0.007-11.241-5.039-11.248-11.247v-0.001zM6.811 29.25l3.743-3.743c1.593 0.782 3.466 1.239 5.447 1.239 1.957 0 3.809-0.446 5.461-1.243l-0.075 0.033 3.78 3.714z">
        </path>
    </g>
</svg>